<svg width="180" height="30" viewBox="0 0 180 30" fill="none" xmlns="http://www.w3.org/2000/svg">
<path fill-rule="evenodd" clip-rule="evenodd" d="M48.1011 0L32.7525 30H18.336L24.7594 17.5667H24.4712C19.172 24.4447 11.2655 28.9725 0 30V17.7388C0 17.7388 7.20683 17.3132 11.4435 12.8596H0V0.000236973H12.8613V10.5769L13.15 10.5757L18.4055 0.000236973H28.1322V10.5098L28.4209 10.5093L33.8736 0H48.1011Z" fill="#9FA3B0"/>
<path d="M131.797 26.6886H135.939V2.91659H131.797V26.6886Z" fill="#9FA3B0"/>
<path fill-rule="evenodd" clip-rule="evenodd" d="M108.962 26.4458C109.862 26.8201 110.778 27.007 111.708 27.007C113.246 27.007 114.621 26.6329 115.835 25.8845C117.049 25.1361 117.99 24.1045 118.657 22.7898C119.325 21.4649 119.659 19.9631 119.659 18.2842C119.659 16.6053 119.315 15.1034 118.627 13.7786C117.939 12.4537 116.983 11.4272 115.759 10.699C114.535 9.96069 113.145 9.5966 111.587 9.60671C110.596 9.60671 109.645 9.79887 108.734 10.1832C107.824 10.5675 107.065 11.1136 106.458 11.8216C106.412 11.8755 106.366 11.9299 106.322 11.9849V2.93176H102.165V26.6886H106.292L106.283 24.4692C106.39 24.6001 106.504 24.7279 106.625 24.8529C107.283 25.5306 108.062 26.0615 108.962 26.4458ZM113.21 22.6077C112.533 23.0223 111.759 23.2298 110.889 23.2298C110.029 23.2298 109.24 23.0173 108.522 22.5925C107.804 22.1576 107.232 21.566 106.807 20.8176C106.393 20.0692 106.185 19.2197 106.185 18.269C106.175 17.3183 106.378 16.4688 106.792 15.7204C107.217 14.9618 107.789 14.3753 108.507 13.9606C109.225 13.5358 110.019 13.3285 110.889 13.3386C111.759 13.3285 112.533 13.5308 113.21 13.9454C113.898 14.35 114.424 14.9315 114.788 15.69C115.162 16.4384 115.35 17.2981 115.35 18.269C115.35 19.2399 115.162 20.0996 114.788 20.848C114.424 21.5963 113.898 22.1829 113.21 22.6077Z" fill="#9FA3B0"/>
<path d="M54.1016 4.35778H58.8355L63.0702 19.8204L67.575 4.35778H71.5198L76.4055 19.5102L80.4717 4.35778H84.811L78.4082 26.6886H74.3267L69.3588 11.8859L64.7983 26.6886H60.6713L54.1016 4.35778Z" fill="#9FA3B0"/>
<path fill-rule="evenodd" clip-rule="evenodd" d="M91.8017 27.083C90.1529 27.093 88.666 26.7289 87.3409 25.9907C86.026 25.2423 84.9892 24.2056 84.2305 22.8808C83.482 21.5558 83.1077 20.0439 83.1077 18.3448C83.1077 16.6964 83.4922 15.2046 84.2609 13.8696C85.0295 12.5346 86.0715 11.4929 87.3864 10.7445C88.7014 9.99609 90.168 9.62188 91.7865 9.62188C93.6072 9.62188 95.2004 10.0264 96.5659 10.8355C97.9415 11.6446 98.9682 12.7925 99.6459 14.2792C100.334 15.7558 100.582 17.4498 100.389 19.3612H87.3929C87.4292 20.1227 87.6192 20.8156 87.963 21.4395C88.3474 22.1273 88.8835 22.6633 89.5712 23.0476C90.259 23.4319 91.0279 23.624 91.8775 23.624C92.5249 23.614 93.1267 23.5027 93.683 23.2904C94.2394 23.068 94.7097 22.7695 95.0942 22.3954C95.4885 22.0211 95.7667 21.5963 95.9286 21.1211H100.268C100.005 22.2841 99.479 23.3207 98.69 24.2309C97.901 25.131 96.9097 25.8339 95.7162 26.3396C94.5225 26.8452 93.2177 27.093 91.8017 27.083ZM87.9782 15.1894C87.7357 15.612 87.5679 16.0672 87.4744 16.5548H96.0894C96.0269 15.9387 95.8367 15.3774 95.5189 14.8708C95.1549 14.2741 94.6592 13.814 94.032 13.4903C93.4049 13.1566 92.6969 12.9897 91.9079 12.9897C91.0684 12.9897 90.3047 13.1819 89.6169 13.5662C88.929 13.9505 88.3827 14.4916 87.9782 15.1894Z" fill="#9FA3B0"/>
<path d="M122.708 9.97081C122.708 8.61558 123.017 7.41207 123.634 6.36026C124.251 5.29834 125.116 4.47408 126.228 3.8875C127.351 3.29079 128.661 2.98233 130.158 2.9621V6.64849C129.46 6.6586 128.863 6.80526 128.368 7.08844C127.882 7.3615 127.508 7.76099 127.245 8.28689C127.003 8.77105 126.872 9.33235 126.853 9.97081H130.067V13.4752H126.85V26.6886H122.708V13.4752H120.038V9.97081H122.708Z" fill="#9FA3B0"/>
<path fill-rule="evenodd" clip-rule="evenodd" d="M146.468 27.0527C144.779 27.0527 143.267 26.6834 141.932 25.9452C140.607 25.1968 139.565 24.1651 138.806 22.8505C138.058 21.5255 137.683 20.0237 137.683 18.3448C137.683 16.6559 138.058 15.149 138.806 13.8241C139.565 12.4891 140.607 11.4524 141.932 10.7141C143.267 9.97586 144.779 9.60671 146.468 9.60671C148.168 9.60671 149.685 9.97586 151.02 10.7141C152.366 11.4524 153.412 12.484 154.161 13.8089C154.909 15.1338 155.289 16.6457 155.299 18.3448C155.289 20.0237 154.909 21.5255 154.161 22.8505C153.423 24.1651 152.381 25.1968 151.035 25.9452C149.69 26.6834 148.168 27.0527 146.468 27.0527ZM146.468 23.2449C147.359 23.2449 148.148 23.0426 148.835 22.638C149.523 22.2234 150.054 21.6468 150.428 20.9086C150.803 20.1602 150.99 19.3057 150.99 18.3448C150.99 17.374 150.803 16.5143 150.428 15.7659C150.054 15.0175 149.523 14.441 148.835 14.0364C148.148 13.6218 147.359 13.4145 146.468 13.4145C145.588 13.4145 144.805 13.6218 144.117 14.0364C143.439 14.441 142.913 15.0175 142.539 15.7659C142.164 16.5143 141.982 17.374 141.993 18.3448C141.993 19.3057 142.18 20.1602 142.554 20.9086C142.938 21.6468 143.464 22.2234 144.132 22.638C144.81 23.0426 145.588 23.2449 146.468 23.2449Z" fill="#9FA3B0"/>
<path d="M159.775 9.97081H155.162L160.154 26.6886H164.19L167.473 16.0109L171.018 26.6886H174.993L180 9.97081H175.828L172.988 20.3765L169.85 9.97081H165.814L162.69 20.6058L159.775 9.97081Z" fill="#9FA3B0"/>
</svg>
